<?xml version="1.0" encoding="utf-8"?>
<!-- Generator: Adobe Illustrator 20.1.0, SVG Export Plug-In . SVG Version: 6.00 Build 0)  -->
<svg version="1.1"
	 id="svg2" inkscape:version="0.91 r13725" sodipodi:docname="kopirat-logo.svg" xmlns:cc="http://creativecommons.org/ns#" xmlns:dc="http://purl.org/dc/elements/1.1/" xmlns:inkscape="http://www.inkscape.org/namespaces/inkscape" xmlns:rdf="http://www.w3.org/1999/02/22-rdf-syntax-ns#" xmlns:sodipodi="http://sodipodi.sourceforge.net/DTD/sodipodi-0.dtd" xmlns:svg="http://www.w3.org/2000/svg"
	 xmlns="http://www.w3.org/2000/svg" xmlns:xlink="http://www.w3.org/1999/xlink" x="0px" y="0px" viewBox="0 0 311.4 129.9"
	 style="enable-background:new 0 0 311.4 129.9;" xml:space="preserve">
<style type="text/css">
	.st0{enable-background:new    ;}
	.st1{fill:#FFFFFF;}
</style>
<path id="text4140" inkscape:connector-curvature="0" sodipodi:nodetypes="ccccccsssccccccccsccssscssssccssccscssssscsccccsccccssccccscscscssscssccsscsscssscccscscccccccscssssssccsccscccccccssccccscccsssscccccccccccc" d="
	M52.7,0c-5.2,0-8.7,2.5-11.9,5.3l-0.1,0.1l-0.1,0.1c-2.1,2-3.8,4.5-5,7.1c-6.1,1.8-11.4,4.3-15.9,7.8c-5.9,4.5-9.9,11.6-9.9,19
	c0,2.6,0.6,5.9,3.1,8.8c2.5,2.8,6.3,3.9,9.2,3.9c3.7,0,7.9-2.3,10-5.2c0.4-0.5,0.6-1,0.9-1.4c-0.1,4.6-0.3,8.8-0.7,12.4l0,0.1l0,0.1
	c-0.3,3.2-0.8,5.8-1.3,7.4l0,0.1l0,0.1c-0.6,2-1.3,3.9-2.3,5.9c-0.6,1.2-1.1,1.7-1.7,2.1c-0.3,0.2-0.6,0.3-1,0.4
	c0.2-0.7,0.3-1.3,0.3-2.8c0-3.6-3.3-7.7-5.7-8.8s-4.1-1.1-5.8-1.1c-4.1,0-8.6,2.2-11.2,5.4C1.1,69.7,0,73.6,0,77.2
	c0,6,3.7,12.4,9,15.4c4.3,2.4,9.2,3.6,14.2,3.6c8.6,0,16.8-2.8,22.8-8.4c3.3-3.1,5.8-6.9,7.8-11.1c1.6,3.6,3.2,7,4.7,10.1
	c2.1,4.2,4.2,7.7,6.9,10.6c2.7,2.9,6.6,5.6,11.5,5.6c4.6,0,9.2-1.3,13-3.9c2.7-1.8,5.5-4,6.8-7.8c2,0.5,4,0.9,6,0.9
	c8.3,0,16.2-2.9,21.7-8.7c-3.2,12.7-5,23.4-5,32.5c0,2.1,0.4,4.2,1,6.2c0.5,1.6,1.3,3.4,3.1,5.1c1.8,1.7,4.7,2.8,7.1,2.8
	c3.3,0,4.9-1.1,6.3-2c1.3-0.8,2.5-1.8,3.6-2.8c1.1-0.9,2.1-1.8,3-2.8c1-1.1,2.2-2,2.9-5.3l0,0l0,0c1.4-6.6,2.1-15.2,2.5-25
	c0.4,0,0.7,0.1,1.1,0.1c6.3,0,12.5-2.5,17.2-6.6c0.4,0.6,1,1.4,1.8,2.2l0.3,0.3l0.4,0.3c3.7,3,8.2,3.8,12.5,3.8
	c6.6,0,10.6-4.1,14-8.3c0.2-0.2,0.3-0.6,0.5-0.8c0.1,1,0.1,2.1,2.6,4.7l0.3,0.3l0.4,0.3c3.7,3,8.2,3.8,12.5,3.8
	c5.5,0,9.1-2.8,12.1-6.2c3.6,3.6,8.5,6.2,13.6,6.2c3.6,0,7.2-1.2,10.2-3.2c3.5,2.5,7.6,3.2,11.6,3.2c4.1,0,7.1-1.6,9.7-3.8
	c2.3,2.4,4.6,2.8,6.6,3.2c2.2,0.4,4.4,0.6,6.9,0.6c6.6,0,10.7-4,14.1-8.3c3.4-4.3,6.5-9.8,9.8-16.9c2.5-5.3,4.3-9.2,4.3-14.4
	c0-1.6-0.3-4.1-2.3-6.4c-0.8-0.9-1.8-1.5-2.8-2c0.7-1.2,1.4-2.9,1.3-5c-0.1-2.8-2.2-6.5-4.6-8c-2.5-1.6-4.5-1.6-6.1-1.6
	c-1.2,0-1.5,0.1-2.1,0.2c0-0.4,0.1-1,0.1-1.4c0.3-3.6,0.4-5.3,0.4-7.1c0-2.1,0-3.9-0.8-6.3c-0.4-1.2-0.9-2.7-2.5-4.3s-4.4-3-6.9-3
	c-4.5,0-7.8,2.4-10,4.8c-2.2,2.3-4,5.4-4.5,8.9c-0.5,3.3-0.9,6.5-1.4,9.7c-1,0.2-2.1,0.6-3.3,1.3c-1.2-0.5-2.5-0.8-3.7-0.8
	c-3.4,0-5.6,1.2-7.6,2.5c-2.5-1.5-5.3-2.5-8.7-2.5c-8.3,0-16.4,4.2-21.4,10.9l0,0l0,0c-1.2,1.6-2.2,3.3-3.1,5
	c-0.1-0.2-0.2-0.4-0.3-0.6c-1.2-1.8-3.9-3.9-7-4.6c-0.5-2.8-1.8-5.5-3.5-7.6c-2.3-2.9-6.4-5.7-10.8-5.7c-1.6,0-3.2,0.5-4.7,1.2
	c1.1-2.5,1.6-5.3,1.6-7.9c0-2.5-0.5-5.7-2.9-8.4c-2.4-2.8-6.2-3.9-8.9-3.9c-3.7,0-6.6,1.4-9,3.1c-3.1,2.1-6,6.4-6,10.8
	c0,3,0.1,5.4,0.9,8.2c0.4,1.2,1,2.6,2.1,4c-0.6,0.5-1.3,1.1-1.8,1.6c-3.7-3.7-8.7-6.3-14-6.3c-2.4,0-4.8,0.7-7,1.7
	c-0.1-0.1-0.1-0.1-0.2-0.2c-1.6-1.5-4.3-2.7-6.7-2.7c-5.4,0-7.7,2.4-10.2,4.7l0.2-0.1c-2,1.7-3.6,3.1-5,4.8c0,0,0,0.1-0.1,0.1
	c0,0,0,0,0,0c-0.1,0.1-0.1,0.1-0.2,0.2l0.2-0.2c-0.3-0.4-0.5-0.8-0.8-1.2c-3.7-4.6-9.2-8.1-15.4-8.1c-3.6,0-7.3,0.9-10.6,2.6
	c-6.7,0.9-12.9,5-16.8,10.7l0,0l0,0c-4,6-6.1,12.9-6.1,19.9c0,1.8,0.2,3.6,0.4,5.4c-1.8-3.4-4-7.4-6.4-12.3
	c4.8-6.4,9.3-14.8,14.1-25.6c4.4-3.1,8.4-8,8.4-14.1c0-2.5-0.4-5.6-2.8-8.4s-6.3-4.1-9.1-4.1c-4.6,0-9.4,2-12.6,5.2
	c-1.3,1.3-2.4,2.8-3.4,4.4c-0.1-3.5-1.7-7.5-4.5-10C60,1.2,56,0,52.7,0L52.7,0z M86.2,31.4c-0.3,0.3-0.4,0.3-0.4,0.3
	C85.7,31.7,86,31.5,86.2,31.4z M252.9,35.1C252.9,35.1,252.9,35.1,252.9,35.1C252.9,35.1,252.9,35.1,252.9,35.1L252.9,35.1
	L252.9,35.1z"/>
<g class="st0">
	<path class="st1" d="M82.9,86.8l4.8-0.5c0.7,0,1.1,0.3,1.1,1c-0.2,1.4-1.4,3-3.8,4.6c-2.4,1.6-5.1,2.4-8.3,2.4
		c-3.4,0-6.9-3.8-10.6-11.3c-3.2-6.3-6.5-13.8-9.8-22.3c-2.3,1.3-4.7,2.1-7.2,2.5c-3.5,16.3-12.2,24.4-26,24.4
		c-3.6,0-6.9-0.8-10-2.5c-3.1-1.7-4.6-4.3-4.6-7.8c0-2.2,0.6-4,1.7-5.4c1.1-1.4,2.6-2.1,4.5-2.1c1.9,0,2.8,0.4,2.8,1.3
		c0,0.4-0.2,1.2-0.7,2.3c-0.5,1.2-0.7,2.3-0.7,3.5c0,1.2,0.7,2.4,2,3.7c1.4,1.3,3.4,2,6.1,2c2.7,0,5.1-0.6,7.1-1.9
		c2-1.2,3.6-3.1,4.8-5.5c1.2-2.4,2.2-4.9,3-7.3c0.8-2.5,1.3-5.6,1.6-9.3c0.6-5.3,0.8-11.4,0.8-18.3c0-6.9,0.1-12.4,0.2-16.6
		C31.7,25.5,26.5,30,26.5,37c0,2-0.4,3.6-1.3,4.7c-0.8,1.1-1.9,1.7-3.2,1.7c-2.4,0-3.6-1.4-3.6-4.1c0-4.8,2.2-8.9,6.5-12.2
		c4.3-3.3,10.1-5.8,17.3-7.4c0.6-3.2,2-5.9,4.3-7.9c2.3-2.1,4.3-3.1,6.1-3.1s3.3,0.5,4.3,1.5c1.1,1,1.6,2.3,1.6,4
		c0,3.9-2.7,6.7-8.2,8.2L51,44.7c0,4.7-0.3,9-0.8,13c4.1-1.3,8.1-4.9,12-11c3.9-6,7.3-13.7,10.1-23c2.2-7.2,5.8-10.8,11-10.8
		c2.2,0,3.3,1.3,3.3,4c0,2.6-1.6,4.9-4.8,7.1c-1.2,0.8-1.9,1.4-2,1.7c-6.3,14.4-12,24.3-17.2,29.9c5.1,10.4,9.2,18.1,12.3,23.4
		C78,84.2,80.7,86.8,82.9,86.8z M53.8,12.7c-1.7,0-2.7,1.8-3.1,5.4c2.9-0.9,4.3-2,4.3-3.5C55,13.3,54.6,12.7,53.8,12.7z"/>
	<path class="st1" d="M124.9,56.7c3.2-1,5.4-1.9,6.7-2.7c1.2-0.8,2.2-1.3,2.8-1.7l1.4-0.8c0.4-0.2,0.7-0.4,1-0.4c0.6,0,1,0.4,1,1.1
		s-1.2,2-3.7,3.8c-2.5,1.8-5.6,3.4-9.3,4.9c-0.6,6.7-2.7,12.2-6.4,16.4c-3.7,4.2-9,6.3-15.8,6.3c-5,0-8.8-2-11.4-6
		c-2.6-4-4-8.6-4-14c0-5.3,1.6-10.4,4.8-15.1c3.2-4.7,7.2-7.1,12.2-7.1c2.2-1.6,4.9-2.4,8-2.4c3.1,0,6,1.6,8.6,4.9
		C123.5,47.1,124.9,51.4,124.9,56.7z M117.1,62.8l-4.3,0.2c-3.7,0-6.8-1.1-9.4-3.3c-2.6-2.2-3.9-4.6-3.9-7.3c0-2.6,0.4-4.9,1.3-6.9
		c-3.5,2.7-5.2,8.1-5.2,16.1c0,3.9,0.8,7.5,2.4,11c1.6,3.5,4.1,5.2,7.6,5.2c3.5,0,6.1-1.5,8.1-4.4C115.7,70.6,116.8,67.1,117.1,62.8
		z M109.6,42.8c-1.3,0-2.3,0.6-3,1.7c-0.7,1.2-1.1,2.4-1.1,3.8c0,3,1,5.4,3.1,7.2c2,1.8,4.4,2.8,7.2,2.8h1.4
		c-0.2-3.9-0.8-7.5-2-10.7C114.1,44.4,112.2,42.8,109.6,42.8z"/>
	<path class="st1" d="M134.8,45.3c0.9-1,2.3-2.4,4.2-4c1.9-1.6,3.5-2.5,4.6-2.5c1.1,0,1.7,1.6,1.7,4.8c0,3.2-0.8,6.3-2.5,9.3
		c-0.3,1.4-0.6,3.5-0.7,6.3c2.3-6.3,4.7-11.1,7-14.3c2.3-3.2,5.2-4.8,8.5-4.8c3.3,0,6.2,1.5,8.7,4.5s3.7,7.7,3.7,14.2
		c0,6.5-1.8,12.2-5.5,17.2c-3.7,5-8.5,7.5-14.4,7.5c-3.1,0-6.1-1.1-9.3-3.4c0,15.3-0.9,27-2.6,35c-0.2,0.7-1.2,1.9-3.2,3.7
		c-2,1.7-3.4,2.6-4.3,2.6c-0.9,0-1.6-0.6-2-1.9c-0.4-1.3-0.6-2.5-0.6-3.6c0-8.3,1.7-18.9,5.1-31.9c0.6-7.5,0.9-15.8,1.1-24.8
		C134.5,50.1,134.7,45.5,134.8,45.3z M150.8,79.1c2.3,0,4.7-1.6,7.2-4.9c2.5-3.3,3.7-7.3,3.7-12c0-4.8-0.7-8.6-2-11.4
		c-1.3-2.8-3.1-4.3-5.4-4.3c-3.9,0-8.2,8-13.1,24c-0.2,2.2-0.2,4-0.2,5.3C143.3,77.9,146.6,79.1,150.8,79.1z"/>
	<path class="st1" d="M182.4,83.4c-3.1,0-5.5-0.6-7.1-1.9c-0.6-0.6-0.8-2.6-0.8-6c0-3.5,0.3-9.2,0.8-17.3c0.5-8.1,1-12.4,1.4-13.1
		c0.4-0.6,1.6-1.8,3.7-3.6c2.1-1.8,3.7-2.6,4.9-2.6s1.7,1.5,1.7,4.6c0,0.8-0.2,2.4-0.7,4.7c-0.4,2.3-0.9,4-1.5,5.1
		c-1,2.6-1.6,9.6-1.6,20.8c0,2.2,0.2,3.3,0.7,3.3c1.4-0.1,3.3-1.8,5.7-5.1c2.4-3.3,4.8-7.6,7.2-12.8c2.4-5.2,3.8-7.8,4.3-7.8
		c0.5,0,0.8,0.3,0.8,1c0,2.2-1.2,5.8-3.5,10.7C192.1,76.6,186.7,83.4,182.4,83.4z M178.9,23.9c0-1.4,0.8-2.7,2.3-3.7
		c1.5-1,2.9-1.6,4.1-1.6c2.2,0,3.3,1.2,3.3,3.7c0,2.5-0.6,4.6-1.9,6.4c-1.3,1.8-3.1,2.7-5.4,2.7C179.7,31.5,178.9,29,178.9,23.9z"/>
	<path class="st1" d="M206,51.4l6.6-0.7c0.6,0,1.2,0.4,1.7,1.1c0.5,0.7,0.7,1.5,0.7,2.3c0,0.8-0.3,3.5-0.8,8.2
		c-0.5,4.7-0.8,8.3-0.8,11c0,2.7,0.2,4,0.7,4c1.4-0.1,3.3-1.8,5.7-5.1c2.4-3.3,4.8-7.6,7.2-12.8c2.4-5.2,3.8-7.8,4.3-7.8
		c0.5,0,0.8,0.3,0.8,1c0,2.2-1.2,5.8-3.5,10.7c-6.3,13.5-11.7,20.2-16,20.2c-3.1,0-5.5-0.6-7.1-1.9c-0.6-0.6-0.8-4.1-0.8-10.5
		c0-6.4,0.7-11.9,2-16.5c-4.7,0-7.9-1.5-9.8-4.5c-1-1.5-1.4-3.3-1.4-5.2c0-1.9,0.4-3.6,1.2-5.1c0.8-1.4,1.9-2.2,3.4-2.2
		c1.5,0,2.8,0.8,4.1,2.3c1.2,1.6,1.9,3.3,1.9,5.2c0,1.9-0.6,3.9-1.7,5.8C204.7,51.2,205.3,51.4,206,51.4z"/>
	<path class="st1" d="M260.1,83.4c-3.1,0-5.5-0.6-7.1-1.9c-0.6-0.6-0.8-2-0.8-4.3c0-2.3,0.1-5.4,0.2-9.2c-2.1,5.2-4.2,9.1-6.2,11.6
		c-2,2.5-4.7,3.8-7.9,3.8c-3.2,0-6-1.5-8.4-4.5c-2.4-3-3.6-7.7-3.6-14.2c0-6.5,1.8-12.2,5.5-17.2c3.7-5,8.4-7.5,14.4-7.5
		c2.6,0,5.5,1.7,8.7,5.1c0.6-0.9,1.8-1.9,3.4-3.2c1.6-1.2,3-1.9,4.2-1.9c1.2,0,1.7,1.5,1.7,4.6c0,0.8-0.2,2.4-0.7,4.7
		c-0.4,2.3-0.9,4-1.5,5.1c-0.7,1.8-1.1,8.4-1.1,19.6c0,2.2,0.2,3.3,0.7,3.3c1.4-0.1,3.3-1.8,5.7-5.1c2.4-3.3,4.8-7.6,7.2-12.8
		c2.4-5.2,3.8-7.8,4.3-7.8c0.5,0,0.8,0.3,0.8,1c0,2.2-1.2,5.8-3.5,10.7C269.7,76.6,264.4,83.4,260.1,83.4z M245.4,44.9
		c-2.3,0-4.6,1.7-7.2,5c-2.5,3.3-3.8,7.2-3.8,11.7c0,4.5,0.7,8.2,2,11.1c1.3,2.9,3.1,4.3,5.2,4.3c2.7,0,6.5-6.6,11.7-19.9
		c0.1-0.6,0.2-1.7,0.3-3.3c0.1-1.6,0.2-2.7,0.3-3.6c-0.7-1.3-2-2.5-3.8-3.7C248.3,45.4,246.7,44.9,245.4,44.9z"/>
	<path class="st1" d="M299.3,63.2c-6.3,13.5-11.7,20.2-16.1,20.2c-4.4,0-6.9-0.5-7.7-1.6c-0.8-1-1.1-4.5-1.1-10.4
		c0-5.9,0.6-14.3,1.7-25.4c-4-0.8-6.1-2.4-6.4-4.9c0-1.3,0.8-1.9,2.5-1.9c1.7,0,3.2,0.3,4.5,1c0.7-5.8,1.6-11.6,2.5-17.6
		c0.2-1.5,1-3,2.3-4.3c1.3-1.4,2.5-2,3.7-2c1,0,1.6,1.6,1.6,4.9c0,1.5-0.6,8.6-1.7,21.1c2.2-0.4,4.6-1.2,7.2-2.4
		c2.6-1.2,4.2-1.8,4.6-1.8c1.4,0,2.2,0.4,2.2,1.3c0.1,0.8-1.4,1.9-4.5,3.3c-3.1,1.4-6.3,2.5-9.9,3.2c-1,11.7-1.4,20.6-1.4,26.6
		c0,3.2,0.5,4.8,1.4,4.8c1.4-0.1,3.4-1.8,5.8-5.1c2.4-3.3,4.8-7.6,7.2-12.8c2.4-5.3,3.8-7.9,4.3-7.9c0.5,0,0.8,0.3,0.8,1
		C302.8,54.7,301.7,58.3,299.3,63.2z"/>
</g>
</svg>
